<svg xmlns="http://www.w3.org/2000/svg" viewBox="0 0 256 256">
<defs>
<linearGradient id="grad" x1="0%" y1="0%" x2="100%" y2="100%">
<stop offset="0%" style="stop-color:#4a148c;stop-opacity:1"/>
<stop offset="100%" style="stop-color:#d4af37;stop-opacity:1"/>
</linearGradient>
</defs>
<rect width="256" height="256" fill="#1a0a2e"/>
<circle cx="128" cy="128" r="100" fill="none" stroke="#d4af37" stroke-width="0.5" opacity="0.2"/>
<circle cx="128" cy="128" r="80" fill="none" stroke="#d4af37" stroke-width="0.5" opacity="0.2"/>
<circle cx="128" cy="128" r="60" fill="none" stroke="#d4af37" stroke-width="0.5" opacity="0.2"/>
<path d="M128 28 L138 48 L158 48 L143 60 L148 80 L128 68 L108 80 L113 60 L98 48 L118 48 Z" fill="none" stroke="#4a148c" stroke-width="0.5" opacity="0.3"/>
<path d="M128 228 L138 208 L158 208 L143 196 L148 176 L128 188 L108 176 L113 196 L98 208 L118 208 Z" fill="none" stroke="#4a148c" stroke-width="0.5" opacity="0.3"/>
<path d="M28 128 L48 138 L48 158 L60 143 L80 148 L68 128 L80 108 L60 113 L48 98 L48 118 Z" fill="none" stroke="#4a148c" stroke-width="0.5" opacity="0.3"/>
<path d="M228 128 L208 138 L208 158 L196 143 L176 148 L188 128 L176 108 L196 113 L208 98 L208 118 Z" fill="none" stroke="#4a148c" stroke-width="0.5" opacity="0.3"/>
<path d="M155 75 Q180 85 180 115 Q180 145 155 155 L155 135 Q165 130 165 115 Q165 100 155 95 L155 75 M155 155 L95 155 L95 135 L135 135 L135 75 L155 75" fill="url(#grad)"/>
</svg>